<?xml version="1.0" standalone="no"?>
<!DOCTYPE svg PUBLIC "-//W3C//DTD SVG 20010904//EN"
 "http://www.w3.org/TR/2001/REC-SVG-20010904/DTD/svg10.dtd">
<svg version="1.0" xmlns="http://www.w3.org/2000/svg"
 width="421.000000pt" height="421.000000pt" viewBox="0 0 421.000000 421.000000"
 preserveAspectRatio="xMidYMid meet">
<metadata>
Created by potrace 1.11, written by Peter Selinger 2001-2013
</metadata>
<g transform="translate(0.000000,421.000000) scale(0.100000,-0.100000)"
fill="#000000" stroke="none">
<path d="M1896 4055 c-4 -14 -19 -53 -35 -87 -16 -35 -36 -79 -44 -98 -8 -19
-34 -78 -57 -130 -23 -52 -48 -111 -57 -130 -8 -19 -25 -59 -39 -88 -13 -29
-24 -59 -24 -66 0 -7 -7 -19 -15 -26 -9 -7 -13 -15 -11 -18 3 -2 -2 -19 -11
-36 -9 -17 -18 -35 -19 -41 -2 -9 -71 -168 -115 -262 -10 -24 -19 -45 -19 -47
0 -3 -14 -35 -32 -73 -17 -37 -31 -70 -30 -73 0 -3 -6 -16 -13 -30 -7 -14 -21
-43 -30 -65 -9 -22 -26 -58 -36 -81 -10 -22 -19 -46 -19 -53 0 -7 -5 -9 -12
-5 -6 4 -8 3 -5 -3 7 -11 -29 -99 -131 -323 -16 -36 -35 -82 -42 -102 -8 -20
-18 -34 -23 -31 -6 3 -7 1 -3 -5 3 -5 -7 -40 -24 -75 -16 -36 -30 -68 -30 -71
0 -3 -13 -34 -30 -68 -16 -34 -30 -67 -30 -75 0 -7 -5 -13 -10 -13 -6 0 -9 -3
-8 -7 2 -5 -7 -32 -20 -60 -12 -29 -23 -56 -23 -60 -1 -5 -7 -19 -14 -33 -8
-14 -39 -83 -70 -155 -31 -71 -66 -150 -77 -175 -11 -25 -26 -58 -33 -75 -7
-16 -42 -99 -79 -183 -36 -84 -66 -157 -66 -162 0 -6 -5 -10 -12 -10 -6 0 -9
-3 -6 -6 5 -5 -7 -36 -66 -169 -8 -16 -19 -41 -25 -55 -6 -14 -33 -76 -61
-139 -27 -63 -47 -117 -45 -121 3 -4 38 -24 80 -45 41 -20 73 -41 70 -45 -3
-5 0 -12 6 -16 8 -4 9 -3 5 4 -4 7 -1 12 7 12 19 0 49 -34 40 -45 -5 -4 -3 -5
4 -1 7 4 10 13 6 21 -4 11 -1 13 11 9 9 -3 14 -9 12 -13 -2 -3 8 -7 22 -8 l27
-1 -28 14 c-30 16 -37 27 -10 17 11 -4 14 -3 9 5 -5 8 -2 10 8 6 9 -3 13 -11
9 -18 -4 -6 1 -5 10 3 9 7 15 17 12 21 -2 4 7 6 20 4 14 -1 27 2 30 6 3 5 19
5 36 0 28 -8 29 -7 17 7 -12 15 -11 15 10 4 20 -10 23 -9 32 11 8 20 9 21 9 4
1 -20 1 -20 17 0 8 10 12 12 8 4 -5 -10 1 -8 16 5 13 11 20 15 17 9 -4 -7 0
-14 8 -17 9 -4 12 -1 8 9 -4 12 -1 13 22 4 23 -9 26 -8 17 3 -9 11 -8 14 3 14
8 0 15 -3 15 -7 0 -4 7 -7 15 -7 11 0 12 4 3 14 -8 11 -7 12 6 7 9 -3 24 0 33
7 10 8 14 9 10 2 -5 -8 0 -11 13 -10 11 1 20 5 20 10 0 5 9 7 20 4 11 -3 20 0
20 5 0 6 6 5 15 -2 13 -11 14 -10 9 5 -5 13 -3 16 7 13 8 -3 13 -14 11 -24 -2
-15 -1 -16 7 -4 5 8 8 17 6 21 -3 3 7 11 20 17 29 13 33 6 8 -15 -24 -20 5 -4
40 21 22 16 30 17 40 7 10 -10 8 -11 -8 -5 -21 8 -20 6 7 -15 15 -11 16 -10
12 15 -4 23 -3 25 10 15 11 -9 15 -9 19 1 4 10 8 10 16 -2 9 -12 11 -11 11 9
0 23 0 23 18 4 9 -10 14 -14 10 -9 -12 16 -9 26 6 20 9 -3 17 9 26 40 7 27 17
43 23 39 6 -3 7 -1 3 5 -4 6 -1 22 6 34 6 13 13 29 14 36 5 28 48 122 56 122
5 0 7 4 3 9 -5 9 22 78 35 91 3 3 5 10 5 15 0 6 18 56 40 112 25 65 46 103 55
104 9 0 10 2 3 5 -11 5 -5 26 43 134 1 3 5 15 9 28 4 12 11 22 16 22 5 0 6 7
3 15 -4 8 -1 15 6 15 6 0 9 3 6 8 -2 4 2 22 10 40 l13 33 426 -1 c235 -1 423
-5 420 -10 -3 -5 0 -12 6 -15 5 -4 8 -13 5 -21 -3 -8 -2 -14 3 -14 7 0 27 -47
45 -105 2 -5 8 -23 15 -38 6 -16 8 -33 5 -39 -4 -6 -2 -8 3 -5 13 8 21 -10 18
-40 -1 -12 2 -20 6 -18 10 7 20 -25 12 -37 -3 -6 -2 -8 4 -5 6 4 16 -13 23
-36 8 -23 17 -46 20 -52 6 -8 32 -78 35 -95 1 -3 9 -23 19 -45 10 -22 19 -50
19 -62 1 -11 5 -20 8 -18 3 2 11 -13 18 -33 14 -43 37 -102 58 -151 9 -18 16
-40 17 -47 4 -23 11 -28 66 -38 26 -4 50 -18 46 -25 -3 -4 4 -7 14 -7 14 0 16
3 8 13 -8 10 -7 12 6 7 9 -3 16 -11 16 -16 0 -6 9 -8 20 -5 11 3 23 0 27 -5 4
-7 1 -8 -8 -3 -8 5 -10 4 -6 0 10 -12 39 -16 32 -5 -3 5 -1 11 4 14 14 9 21
-20 8 -33 -9 -9 -8 -11 5 -6 9 4 19 14 22 22 6 14 8 14 25 -1 11 -10 25 -14
36 -10 13 5 16 4 11 -4 -9 -15 -1 -15 26 -1 11 6 18 7 15 2 -3 -5 -2 -15 4
-23 6 -10 9 -11 9 -3 0 7 11 12 24 11 14 -1 22 -6 20 -10 -3 -4 7 -8 21 -8 17
0 24 -4 19 -12 -5 -7 -3 -8 7 -3 7 5 22 10 31 10 14 1 17 -3 12 -19 -6 -19 -4
-18 15 4 13 14 20 21 18 15 -3 -5 1 -16 9 -23 9 -8 14 -9 14 -2 0 6 4 9 10 5
5 -3 7 -13 4 -23 -5 -15 -4 -15 5 -1 13 21 61 13 61 -10 0 -12 2 -13 9 -3 11
18 12 18 38 4 15 -8 20 -18 17 -30 -5 -14 -4 -14 4 -2 6 8 8 18 6 22 -3 4 0 8
5 8 6 0 11 -5 11 -11 0 -7 10 -9 25 -7 13 3 26 0 29 -6 2 -6 5 -3 5 6 1 16 61
57 61 41 0 -4 6 1 13 12 9 11 19 15 27 10 8 -5 11 -4 7 2 -3 5 9 16 29 23 28
11 33 18 28 34 -7 24 -45 114 -80 194 -14 29 -21 59 -18 65 4 7 4 9 -1 5 -4
-4 -37 61 -72 145 -66 157 -71 169 -96 227 -22 51 -41 96 -114 270 -81 195
-92 221 -104 243 -5 10 -7 23 -3 29 5 7 2 8 -6 3 -10 -6 -12 -4 -7 8 3 9 3 17
-1 19 -4 2 -23 39 -41 83 -18 44 -44 103 -56 130 -41 90 -88 208 -88 222 0 7
-3 13 -7 13 -12 0 -51 111 -43 122 3 6 1 8 -5 4 -6 -3 -14 4 -17 16 -4 13 -18
47 -31 76 -13 29 -24 55 -24 58 0 3 -14 35 -31 72 -17 36 -32 71 -33 77 -1 5
-12 33 -25 60 -13 28 -24 55 -25 61 -1 7 -7 18 -12 25 -6 8 -14 23 -17 34 -5
17 -36 94 -80 195 -5 14 -11 27 -12 30 -3 9 -22 54 -48 112 -14 31 -23 59 -19
62 3 3 0 6 -6 6 -7 0 -12 7 -12 15 0 8 -4 23 -10 33 -29 52 -70 164 -64 174 4
6 3 8 -3 5 -5 -3 -20 20 -32 51 -13 31 -34 82 -48 112 -14 30 -26 60 -27 65
-1 6 -14 36 -29 68 -15 32 -27 61 -27 65 0 5 -11 32 -25 60 -14 29 -25 54 -25
57 0 6 -9 26 -66 153 -13 29 -24 57 -24 62 0 6 -86 10 -224 10 l-224 0 -6 -25z
m208 -267 c-6 -10 -5 -10 7 -1 8 6 31 11 51 11 32 0 40 -5 53 -30 12 -25 13
-34 2 -46 -9 -12 -9 -14 0 -9 13 8 48 -47 38 -62 -2 -5 2 -12 11 -15 8 -3 12
-10 9 -16 -4 -6 -11 -7 -17 -4 -7 4 -8 2 -4 -5 4 -6 11 -9 16 -6 5 3 14 -4 20
-15 6 -11 7 -20 3 -20 -4 0 -3 -4 3 -8 7 -4 14 -18 15 -32 2 -14 6 -27 9 -30
10 -10 30 -50 30 -60 0 -6 -5 -8 -12 -4 -7 4 -8 3 -4 -5 4 -6 11 -9 16 -6 9 6
31 -50 23 -59 -4 -3 -2 -6 4 -6 6 0 16 -15 23 -32 7 -18 18 -46 25 -63 8 -16
11 -33 9 -37 -3 -4 -1 -8 5 -8 5 0 13 -10 16 -22 4 -13 18 -47 31 -76 13 -29
24 -57 24 -62 0 -5 9 -26 21 -47 18 -32 19 -41 8 -58 -11 -17 -10 -18 3 -8 13
11 19 2 43 -60 16 -39 32 -76 36 -82 4 -5 9 -19 11 -30 1 -11 5 -22 8 -25 6
-6 141 -320 144 -335 1 -5 17 -41 34 -79 36 -78 38 -83 18 -67 -11 9 -16 9
-22 0 -4 -7 -3 -10 2 -6 14 8 47 -20 38 -34 -4 -8 -3 -10 4 -5 7 4 12 2 12 -4
0 -5 9 -32 21 -58 57 -129 69 -163 62 -175 -3 -5 -1 -7 4 -4 12 8 26 -20 17
-34 -3 -5 -1 -9 4 -9 9 0 48 -86 54 -120 2 -8 9 -21 16 -29 7 -7 11 -20 8 -27
-3 -8 -2 -14 2 -14 6 0 55 -102 58 -120 0 -3 9 -25 20 -50 10 -25 18 -48 16
-52 -1 -5 2 -8 8 -8 5 0 10 -7 10 -15 0 -11 -7 -14 -22 -10 -13 2 -41 7 -63
10 -22 3 -56 9 -75 12 -19 3 -41 5 -47 6 -7 0 -13 3 -13 6 0 3 -15 6 -32 6
-31 0 -198 23 -225 30 -16 5 -43 58 -45 89 -1 13 -5 23 -9 21 -5 -3 -31 61
-35 85 0 3 -6 16 -12 30 -11 25 -86 216 -124 320 -12 30 -27 69 -33 85 -44
104 -77 192 -78 208 -1 9 -4 17 -8 17 -3 0 -14 26 -24 58 -11 31 -23 62 -28
69 -5 7 -6 17 -2 23 3 5 2 10 -3 10 -4 0 -28 52 -53 115 l-44 116 -58 -3 -59
-3 -67 -165 c-37 -91 -71 -174 -76 -185 -4 -11 -9 -24 -11 -30 -14 -49 -93
-223 -99 -217 -5 4 -5 2 -2 -4 4 -7 -1 -29 -10 -50 -9 -22 -18 -43 -19 -49 -2
-8 -102 -258 -146 -364 -6 -14 -12 -28 -13 -31 -1 -3 -9 -22 -18 -44 -9 -21
-17 -44 -17 -50 0 -20 -24 -46 -46 -50 -12 -2 -45 -7 -75 -11 -30 -3 -61 -8
-69 -10 -8 -3 -37 -7 -65 -10 -27 -3 -61 -7 -74 -10 -33 -6 -119 -17 -157 -20
-17 -1 -36 -5 -42 -9 -16 -10 -15 -1 4 42 9 21 20 46 24 57 18 42 51 117 70
159 11 25 20 50 20 55 0 6 5 11 10 11 6 0 9 3 8 8 -2 9 8 36 35 92 12 25 22
47 22 50 0 3 7 16 15 30 7 14 13 26 12 27 -4 8 22 63 29 63 5 0 8 3 8 8 -4 24
2 42 13 36 7 -4 8 -3 4 4 -8 13 43 132 56 132 5 0 7 4 4 9 -3 5 4 32 16 60 15
37 25 50 36 46 11 -4 12 -2 5 7 -7 9 -5 25 7 50 13 31 19 35 30 25 12 -10 12
-9 1 5 -11 14 -11 23 0 48 8 16 18 30 22 30 5 0 5 5 2 11 -4 6 1 17 11 25 11
9 14 13 7 9 -12 -5 18 70 58 148 10 21 19 44 19 52 0 8 8 15 18 15 10 0 13 3
6 8 -8 5 -8 15 1 35 6 15 14 25 17 22 3 -4 5 2 4 12 0 10 4 17 11 16 7 -2 10
4 6 13 -3 8 3 22 13 30 11 9 13 13 7 9 -23 -11 -14 13 15 41 15 15 19 22 10
15 -16 -12 -17 -11 -7 18 6 17 14 31 18 31 4 0 8 6 8 13 0 7 23 67 53 132 57
130 87 199 101 230 31 74 42 101 44 105 0 3 11 25 23 49 12 25 22 51 22 58 0
8 4 11 10 8 6 -3 7 1 4 9 -3 9 -1 16 5 16 6 0 10 3 9 8 -4 14 14 52 22 47 4
-3 8 1 7 8 -1 44 4 53 34 55 22 2 28 -1 23 -10z m49 -1311 c1 -14 5 -24 8 -22
3 2 11 -13 18 -33 7 -20 21 -56 32 -79 10 -24 19 -49 19 -56 0 -8 3 -17 7 -20
13 -14 42 -110 36 -121 -3 -6 -2 -8 2 -3 8 7 51 -86 57 -122 2 -9 6 -18 9 -21
8 -6 70 -170 72 -190 1 -8 5 -17 9 -20 3 -3 8 -14 10 -25 1 -11 7 -23 12 -26
5 -4 9 -20 10 -37 0 -17 4 -28 9 -25 7 4 9 -1 11 -29 1 -7 4 -15 7 -18 4 -3 9
-15 13 -27 l7 -22 -369 -1 c-322 0 -369 2 -369 15 0 8 4 15 9 15 4 0 7 3 6 8
-4 14 13 52 23 52 6 0 8 4 4 9 -8 14 29 103 40 94 4 -4 5 -3 2 4 -9 15 115
323 127 316 5 -3 6 -1 3 4 -4 6 18 74 49 151 45 111 60 139 73 135 13 -4 13
-3 2 5 -11 8 -11 16 -1 46 6 20 16 36 21 36 6 0 8 4 5 9 -4 5 -3 17 0 26 9 22
26 5 27 -28z m-637 -1065 c-30 -81 -42 -102 -56 -96 -11 4 -12 2 -4 -6 11 -11
-1 -61 -25 -108 -5 -9 -58 -138 -117 -287 -59 -148 -114 -275 -122 -282 -9 -8
-22 -9 -39 -2 -18 6 -22 6 -17 -3 5 -8 2 -9 -9 -5 -12 4 -17 1 -18 -11 0 -14
-2 -14 -9 3 -5 11 -9 15 -9 9 -1 -14 -41 -26 -41 -12 0 5 -7 2 -16 -6 -12 -13
-20 -14 -36 -5 -16 8 -19 8 -13 -1 5 -9 1 -10 -15 -5 -14 5 -20 3 -16 -3 6
-11 -19 -10 -30 0 -9 10 -35 -3 -28 -14 4 -6 -2 -5 -14 1 -14 7 -21 8 -24 0
-4 -12 -68 -22 -68 -10 0 4 -7 8 -15 8 -11 0 -12 -4 -4 -13 8 -9 5 -11 -10 -7
-12 3 -18 10 -14 16 3 6 1 7 -5 3 -7 -4 -12 -15 -12 -24 0 -14 -2 -15 -9 -2
-6 8 -7 19 -4 25 4 5 2 6 -3 2 -5 -5 -10 -13 -10 -18 -3 -22 -5 -23 -14 -9 -8
13 -13 13 -31 2 -11 -8 -19 -10 -16 -5 3 5 27 58 52 118 26 60 54 115 63 123
10 7 11 11 5 7 -17 -8 -17 -6 7 43 11 22 20 46 20 52 0 5 4 10 10 10 5 0 9 3
8 8 -4 20 16 62 31 62 10 0 12 3 5 8 -8 5 -6 20 10 52 12 25 30 66 40 93 10
26 22 45 27 42 5 -4 6 1 3 9 -8 20 24 78 39 70 9 -5 9 -4 0 6 -13 14 -6 43 8
34 5 -3 6 1 3 9 -3 8 -1 18 5 22 6 3 11 14 11 24 0 14 11 20 46 25 25 3 50 3
55 0 5 -3 9 -1 9 4 0 4 12 9 28 10 15 1 50 5 77 11 28 5 75 12 105 16 30 3 73
9 94 13 21 4 57 8 79 9 33 2 38 0 33 -15z m1333 -6 c12 -9 13 -8 6 3 -5 8 -4
12 1 9 5 -4 27 -9 49 -12 105 -15 121 -20 133 -35 7 -9 10 -10 6 -2 -5 11 2
12 37 7 24 -3 64 -8 89 -11 25 -3 47 -10 48 -16 2 -5 7 -7 12 -4 10 6 52 -94
44 -106 -3 -5 -1 -9 4 -9 10 0 35 -54 35 -76 0 -8 4 -14 9 -14 10 0 11 -27 1
-33 -5 -2 -2 -2 5 -1 15 4 35 -43 28 -63 -3 -8 -2 -11 3 -8 12 7 24 -31 15
-46 -4 -7 -3 -9 3 -6 12 8 75 -127 77 -165 0 -14 4 -24 7 -22 10 6 20 -26 12
-38 -3 -6 -2 -8 4 -5 12 8 45 -71 36 -86 -3 -6 -1 -7 4 -4 10 6 29 -37 25 -55
-1 -5 3 -8 10 -8 6 0 8 -3 5 -6 -3 -4 -2 -15 3 -25 6 -10 6 -20 1 -23 -5 -3
-12 1 -15 9 -5 14 -8 14 -29 0 -20 -13 -24 -13 -24 0 0 8 5 11 11 8 6 -3 8 -3
4 2 -9 9 -78 14 -78 5 0 -3 -9 -6 -20 -6 -11 0 -20 4 -20 8 0 4 -13 8 -28 8
-15 0 -34 6 -41 12 -8 7 -11 9 -8 3 3 -5 -6 -11 -19 -11 -13 -1 -22 2 -19 6 3
4 -4 10 -15 13 -13 3 -18 1 -13 -6 4 -7 0 -8 -13 -2 -10 4 -27 7 -37 7 -9 0
-15 3 -12 9 4 5 1 9 -4 9 -6 0 -11 -6 -11 -12 0 -9 -4 -8 -10 2 -9 13 -11 13
-20 0 -9 -13 -10 -13 -11 0 -1 8 -1 18 0 23 0 4 -3 7 -9 7 -5 0 -10 -7 -10
-16 0 -14 -3 -14 -15 -4 -14 12 -19 7 -16 -13 1 -5 -3 -6 -8 -2 -6 3 -8 12 -5
19 3 9 -1 13 -12 13 -12 -2 -22 12 -33 45 -9 26 -19 50 -23 54 -5 4 -8 13 -8
20 0 8 -11 37 -24 66 -13 29 -36 87 -51 128 -15 41 -34 90 -42 108 -8 18 -16
40 -18 50 -2 9 -13 39 -24 66 -12 27 -19 56 -17 63 3 8 2 12 -3 8 -13 -7 -33
58 -25 81 4 14 3 15 -4 6 -7 -11 -10 -10 -16 3 -3 9 -4 21 0 26 3 5 1 9 -4 9
-5 0 -12 8 -16 18 -3 9 -9 23 -12 30 -5 10 5 11 48 6 29 -4 59 -12 67 -18z"/>
<path d="M2121 3770 c-13 -11 -18 -20 -13 -20 6 0 14 5 17 10 4 6 10 8 14 6 4
-3 8 1 8 9 0 8 -1 15 -1 15 -1 -1 -12 -10 -25 -20z"/>
<path d="M2070 3745 c5 -6 8 -22 5 -35 -2 -12 -1 -20 3 -16 13 13 10 63 -4 63
-9 0 -11 -4 -4 -12z"/>
<path d="M2154 3728 c-4 -7 -4 -10 1 -6 4 4 15 2 24 -5 14 -11 14 -10 2 6 -16
20 -18 21 -27 5z"/>
<path d="M2040 3710 c-9 -6 -10 -10 -3 -10 6 0 15 5 18 10 8 12 4 12 -15 0z"/>
<path d="M2129 3647 c6 -8 7 -18 3 -22 -4 -5 -1 -5 6 -1 10 6 10 11 1 22 -6 8
-14 14 -16 14 -3 0 0 -6 6 -13z"/>
<path d="M1987 3589 c7 -7 15 -10 18 -7 3 3 -2 9 -12 12 -14 6 -15 5 -6 -5z"/>
<path d="M2215 3589 c-3 -4 2 -6 10 -5 21 3 28 13 10 13 -9 0 -18 -4 -20 -8z"/>
<path d="M2016 3572 c-3 -5 1 -9 9 -9 8 0 12 4 9 9 -3 4 -7 8 -9 8 -2 0 -6 -4
-9 -8z"/>
<path d="M2261 3566 c-9 -11 -9 -16 1 -22 7 -4 10 -4 6 1 -4 4 -3 14 3 22 6 7
9 13 6 13 -2 0 -10 -6 -16 -14z"/>
<path d="M1930 3470 c0 -5 5 -10 11 -10 5 0 7 5 4 10 -3 6 -8 10 -11 10 -2 0
-4 -4 -4 -10z"/>
<path d="M2356 3337 c3 -10 9 -15 12 -12 3 3 0 11 -7 18 -10 9 -11 8 -5 -6z"/>
<path d="M2366 3248 c3 -5 10 -6 15 -3 13 9 11 12 -6 12 -8 0 -12 -4 -9 -9z"/>
<path d="M2387 3209 c7 -7 15 -10 18 -7 3 3 -2 9 -12 12 -14 6 -15 5 -6 -5z"/>
<path d="M1806 3188 c3 -5 10 -6 15 -3 13 9 11 12 -6 12 -8 0 -12 -4 -9 -9z"/>
<path d="M1781 3126 c-9 -11 -9 -16 0 -22 7 -4 9 -3 5 4 -3 6 2 15 11 21 10 6
13 11 7 11 -6 0 -17 -6 -23 -14z"/>
<path d="M1755 3041 c-3 -5 -2 -12 3 -15 5 -3 9 1 9 9 0 17 -3 19 -12 6z"/>
<path d="M2593 2795 c0 -8 4 -12 9 -9 5 3 6 10 3 15 -9 13 -12 11 -12 -6z"/>
<path d="M2695 2561 c-3 -5 -2 -12 3 -15 5 -3 9 1 9 9 0 17 -3 19 -12 6z"/>
<path d="M2736 2477 c3 -10 9 -15 12 -12 3 3 0 11 -7 18 -10 9 -11 8 -5 -6z"/>
<path d="M1435 2350 c-3 -5 -1 -10 4 -10 6 0 11 5 11 10 0 6 -2 10 -4 10 -3 0
-8 -4 -11 -10z"/>
<path d="M1430 2171 c0 -6 4 -13 10 -16 6 -3 7 1 4 9 -7 18 -14 21 -14 7z"/>
<path d="M2835 2091 c-3 -5 -2 -12 3 -15 5 -3 9 1 9 9 0 17 -3 19 -12 6z"/>
<path d="M1315 2010 c-3 -5 -1 -10 4 -10 6 0 11 5 11 10 0 6 -2 10 -4 10 -3 0
-8 -4 -11 -10z"/>
<path d="M1247 1889 c7 -7 15 -10 18 -7 3 3 -2 9 -12 12 -14 6 -15 5 -6 -5z"/>
<path d="M1235 1839 c-4 -6 -5 -12 -2 -15 2 -3 7 2 10 11 7 17 1 20 -8 4z"/>
<path d="M3030 1571 c0 -6 4 -13 10 -16 6 -3 7 1 4 9 -7 18 -14 21 -14 7z"/>
<path d="M2135 2310 c-3 -5 -1 -10 4 -10 6 0 11 5 11 10 0 6 -2 10 -4 10 -3 0
-8 -4 -11 -10z"/>
<path d="M2170 2310 c0 -5 5 -10 11 -10 5 0 7 5 4 10 -3 6 -8 10 -11 10 -2 0
-4 -4 -4 -10z"/>
<path d="M2095 2270 c3 -5 8 -10 11 -10 2 0 4 5 4 10 0 6 -5 10 -11 10 -5 0
-7 -4 -4 -10z"/>
<path d="M2214 2246 c1 -8 5 -18 8 -22 4 -3 5 1 4 10 -1 8 -5 18 -8 22 -4 3
-5 -1 -4 -10z"/>
<path d="M2035 2230 c3 -5 8 -10 11 -10 2 0 4 5 4 10 0 6 -5 10 -11 10 -5 0
-7 -4 -4 -10z"/>
<path d="M1833 1655 c0 -8 4 -12 9 -9 5 3 6 10 3 15 -9 13 -12 11 -12 -6z"/>
<path d="M1455 1401 c-3 -5 -2 -12 3 -15 5 -3 9 1 9 9 0 17 -3 19 -12 6z"/>
<path d="M1055 1350 c-3 -5 -1 -10 4 -10 6 0 11 5 11 10 0 6 -2 10 -4 10 -3 0
-8 -4 -11 -10z"/>
<path d="M1120 1350 c-12 -7 -10 -9 7 -7 12 0 19 5 17 9 -6 10 -6 10 -24 -2z"/>
<path d="M1430 1349 c0 -5 5 -7 10 -4 6 3 10 8 10 11 0 2 -4 4 -10 4 -5 0 -10
-5 -10 -11z"/>
<path d="M1000 1305 c-7 -9 -11 -17 -9 -20 3 -2 10 5 17 15 14 24 10 26 -8 5z"/>
<path d="M1095 1310 c3 -5 8 -10 11 -10 2 0 4 5 4 10 0 6 -5 10 -11 10 -5 0
-7 -4 -4 -10z"/>
<path d="M975 1190 c3 -5 8 -10 11 -10 2 0 4 5 4 10 0 6 -5 10 -11 10 -5 0 -7
-4 -4 -10z"/>
<path d="M976 1152 c-2 -4 -1 -14 4 -22 7 -11 9 -9 7 8 -1 24 -3 26 -11 14z"/>
<path d="M905 1130 c-3 -6 1 -7 9 -4 18 7 21 14 7 14 -6 0 -13 -4 -16 -10z"/>
<path d="M899 1078 c-5 -18 -6 -38 -1 -34 7 8 12 36 6 36 -2 0 -4 -1 -5 -2z"/>
<path d="M915 939 c-4 -6 -5 -12 -2 -15 2 -3 7 2 10 11 7 17 1 20 -8 4z"/>
<path d="M830 911 c0 -6 4 -13 10 -16 6 -3 7 1 4 9 -7 18 -14 21 -14 7z"/>
<path d="M867 809 c7 -7 15 -10 18 -7 3 3 -2 9 -12 12 -14 6 -15 5 -6 -5z"/>
<path d="M735 650 c3 -5 8 -10 11 -10 2 0 4 5 4 10 0 6 -5 10 -11 10 -5 0 -7
-4 -4 -10z"/>
<path d="M836 583 c-6 -14 -5 -15 5 -6 7 7 10 15 7 18 -3 3 -9 -2 -12 -12z"/>
<path d="M3090 1350 c0 -5 5 -10 11 -10 5 0 7 5 4 10 -3 6 -8 10 -11 10 -2 0
-4 -4 -4 -10z"/>
<path d="M3194 1306 c1 -8 5 -18 8 -22 4 -3 5 1 4 10 -1 8 -5 18 -8 22 -4 3
-5 -1 -4 -10z"/>
<path d="M3228 1307 c7 -8 8 -18 4 -22 -4 -5 -1 -5 6 -1 17 10 15 23 -4 30
-13 5 -14 4 -6 -7z"/>
<path d="M2815 1290 c-3 -5 -1 -10 4 -10 6 0 11 5 11 10 0 6 -2 10 -4 10 -3 0
-8 -4 -11 -10z"/>
<path d="M3156 1288 c3 -5 10 -6 15 -3 13 9 11 12 -6 12 -8 0 -12 -4 -9 -9z"/>
<path d="M3177 1225 c-4 -8 -3 -16 1 -19 4 -3 9 4 9 15 2 23 -3 25 -10 4z"/>
<path d="M3260 1216 c0 -2 8 -10 18 -17 15 -13 16 -12 3 4 -13 16 -21 21 -21
13z"/>
<path d="M3310 1036 c0 -2 7 -7 16 -10 8 -3 12 -2 9 4 -6 10 -25 14 -25 6z"/>
<path d="M3494 628 c-4 -7 -4 -10 1 -6 4 4 15 2 24 -5 14 -11 14 -10 2 6 -16
20 -18 21 -27 5z"/>
<path d="M1709 1433 c-13 -16 -12 -17 4 -4 9 7 17 15 17 17 0 8 -8 3 -21 -13z"/>
<path d="M1800 1430 c-12 -7 -10 -9 7 -7 12 0 19 5 17 9 -6 10 -6 10 -24 -2z"/>
<path d="M1736 1408 c3 -5 10 -6 15 -3 13 9 11 12 -6 12 -8 0 -12 -4 -9 -9z"/>
<path d="M1736 1377 c3 -10 9 -15 12 -12 3 3 0 11 -7 18 -10 9 -11 8 -5 -6z"/>
<path d="M2553 1363 c0 -9 4 -10 14 -2 7 6 13 12 13 14 0 1 -6 2 -13 2 -8 0
-14 -6 -14 -14z"/>
<path d="M2446 1352 c-3 -5 1 -9 9 -9 8 0 12 4 9 9 -3 4 -7 8 -9 8 -2 0 -6 -4
-9 -8z"/>
<path d="M1730 1310 c0 -5 5 -10 11 -10 5 0 7 5 4 10 -3 6 -8 10 -11 10 -2 0
-4 -4 -4 -10z"/>
<path d="M1686 1268 c3 -5 10 -6 15 -3 13 9 11 12 -6 12 -8 0 -12 -4 -9 -9z"/>
<path d="M2955 521 c-3 -5 0 -13 6 -17 8 -5 9 -3 4 6 -6 10 -4 12 9 7 10 -4
15 -3 11 3 -8 13 -22 13 -30 1z"/>
<path d="M3434 406 c1 -8 5 -18 8 -22 4 -3 5 1 4 10 -1 8 -5 18 -8 22 -4 3 -5
-1 -4 -10z"/>
<path d="M695 389 c-4 -6 -5 -12 -2 -15 2 -3 7 2 10 11 7 17 1 20 -8 4z"/>
<path d="M1050 371 c0 -6 4 -13 10 -16 6 -3 7 1 4 9 -7 18 -14 21 -14 7z"/>
<path d="M3136 363 c-6 -14 -5 -15 5 -6 7 7 10 15 7 18 -3 3 -9 -2 -12 -12z"/>
<path d="M3580 370 c0 -5 5 -10 11 -10 5 0 7 5 4 10 -3 6 -8 10 -11 10 -2 0
-4 -4 -4 -10z"/>
<path d="M3755 350 c-3 -5 -1 -10 4 -10 6 0 11 5 11 10 0 6 -2 10 -4 10 -3 0
-8 -4 -11 -10z"/>
<path d="M795 330 c3 -5 8 -10 11 -10 2 0 4 5 4 10 0 6 -5 10 -11 10 -5 0 -7
-4 -4 -10z"/>
<path d="M3533 321 c0 -11 5 -18 9 -15 4 3 5 11 1 19 -7 21 -12 19 -10 -4z"/>
<path d="M3575 321 c-3 -5 -2 -12 3 -15 5 -3 9 1 9 9 0 17 -3 19 -12 6z"/>
<path d="M575 310 c-3 -5 -1 -10 4 -10 6 0 11 5 11 10 0 6 -2 10 -4 10 -3 0
-8 -4 -11 -10z"/>
<path d="M610 309 c0 -5 5 -7 10 -4 6 3 10 8 10 11 0 2 -4 4 -10 4 -5 0 -10
-5 -10 -11z"/>
<path d="M3733 305 c0 -8 4 -12 9 -9 5 3 6 10 3 15 -9 13 -12 11 -12 -6z"/>
<path d="M505 290 c-3 -6 1 -7 9 -4 18 7 21 14 7 14 -6 0 -13 -4 -16 -10z"/>
<path d="M750 291 c0 -6 4 -13 10 -16 6 -3 7 1 4 9 -7 18 -14 21 -14 7z"/>
<path d="M3800 290 c-9 -6 -10 -10 -3 -10 6 0 15 5 18 10 8 12 4 12 -15 0z"/>
</g>
</svg>
